# xmcd CD database file
#
# Track frame offsets:
#	150
#	16435
#	60350
#	82738
#	100495
#	135195
#	166900
#	198310
#	226787
#	257690
#	282645
#	312943
#
# Disc length: 4441 seconds
#
# Revision: 0
# Processed by: cddbd v1.5.2PL0 Copyright (c) Steve Scherf et al.
# Submitted via: CDex 1.51
#
DISCID=9211570c
DTITLE=Eddie Harris - Eddi Harris
DYEAR=1900
DGENRE=Blues
TTITLE0=Is It In
TTITLE1=Get On Down
TTITLE2=Funkaroma
TTITLE3=It's All Right Now
TTITLE4=Listen Here
TTITLE5=Cold Duck Time
TTITLE6=Live Right Now
TTITLE7=Boogie Woogie Bossa Nova
TTITLE8=Sham Time
TTITLE9=Love Them (From The Sandpiper)
TTITLE10=Exodus
TTITLE11=1974 Blues
EXTD=
EXTT0=
EXTT1=
EXTT2=
EXTT3=
EXTT4=
EXTT5=
EXTT6=
EXTT7=
EXTT8=
EXTT9=
EXTT10=
EXTT11=
PLAYORDER=
